<svg xmlns="http://www.w3.org/2000/svg" viewBox="0 0 1680 971"><defs><style>.a{opacity:0.012;}</style></defs><path class="a" d="M-1722.362,971V883.018c57.021-22.618,196.414-70.38,362.975-73.314,218.736-3.851,246.017,69.61,484.33,69.61s237.489-73.461,468.923-69.61c139.448,2.321,276.7,32.71,363.771,56.5V971Z" transform="translate(1722.362)"/><path class="a" d="M-203.781,160.607C-299.846,88.495-418.313,75.424-476.989,42.938H-70V305.881C-97.613,263.324-141.5,207.359-203.781,160.607Z" transform="translate(1750 -42.938)"/><path class="a" d="M-1674.043,42.938h437.075c-58.676,32.486-177.144,45.557-273.209,117.669-94.51,70.945-146.652,163.089-163.867,197.435Z" transform="translate(1674.043 -42.938)"/><rect class="a" width="1680" height="971"/></svg>