<svg xmlns="http://www.w3.org/2000/svg" viewBox="0 0 79.954 115.336"><defs><style>.a{fill:#ff814a;}.b{fill:#f85108;}.c{fill:#f52323;}</style></defs><g transform="translate(-800.19 -207)"><path class="a" d="M2590.031,207l-21.351,33.245s-17.919,28.234-18.444,39.91c-1.184,26.356,20.785,43.625,39.795,42.085s36.558-12.792,39.914-35.719c1.614-11.028-6.736-27.008-18.464-45.368S2590.031,207,2590.031,207Z" transform="translate(-1750)"/><path class="b" d="M-1737.685,73.155c.29-6.458,5.9-17.98,10.859-26.99l.629-.638s1.92,10.832,16.423,6.458,13.706-8.969,21.117-18.1,7.323-7.081,7.323-7.081l.225.011c1.506,2.375,3.069,4.833,4.669,7.338,11.729,18.36,20.078,34.34,18.464,45.368-3.355,22.927-20.9,34.179-39.914,35.719q-1.18.1-2.373.1C-1718.679,115.336-1738.82,98.421-1737.685,73.155Z" transform="translate(2537.921 207)"/><path class="c" d="M-1744.255,73.155c0-.023,0-.046,0-.069.233,3.169,1.554,13.663,8.923,19.139,8.746,6.5,21.174,8.032,34.016,2.624s13.075-15.214,19.136-29.745,9.449-13.087,9.449-13.087l.4.219c5.63,10.735,8.84,20.07,7.784,27.286-3.356,22.927-20.9,34.179-39.914,35.719q-1.18.1-2.373.1C-1725.249,115.336-1745.39,98.421-1744.255,73.155Z" transform="translate(2544.491 207)"/></g></svg>